<svg 
 xmlns="http://www.w3.org/2000/svg"
 xmlns:xlink="http://www.w3.org/1999/xlink"
 width="10px" height="16px">
<path fill-rule="evenodd"  fill="rgb(48, 99, 245)"
 d="M6.000,9.899 L6.000,12.000 L4.000,12.000 L4.000,8.000 L5.000,8.000 C6.654,8.000 8.000,6.654 8.000,5.000 C8.000,3.346 6.654,2.000 5.000,2.000 C3.346,2.000 2.000,3.346 2.000,5.000 L-0.000,5.000 C-0.000,2.243 2.243,-0.000 5.000,-0.000 C7.757,-0.000 10.000,2.243 10.000,5.000 C10.000,7.415 8.279,9.435 6.000,9.899 ZM6.000,16.000 L4.000,16.000 L4.000,14.000 L6.000,14.000 L6.000,16.000 Z"/>
</svg>