<svg 
 xmlns="http://www.w3.org/2000/svg"
 xmlns:xlink="http://www.w3.org/1999/xlink"
 width="20px" height="20px">
<path fill-rule="evenodd"  opacity="0.4" fill="rgb(72, 79, 99)"
 d="M10.000,20.000 C4.477,20.000 -0.000,15.523 -0.000,10.000 C-0.000,4.477 4.477,-0.000 10.000,-0.000 C15.523,-0.000 20.000,4.477 20.000,10.000 C20.000,15.523 15.523,20.000 10.000,20.000 ZM10.000,2.000 C5.589,2.000 2.000,5.589 2.000,10.000 C2.000,14.411 5.589,18.000 10.000,18.000 C14.411,18.000 18.000,14.411 18.000,10.000 C18.000,5.589 14.411,2.000 10.000,2.000 ZM9.000,10.414 L9.000,4.000 L11.000,4.000 L11.000,9.586 L14.950,13.535 L13.535,14.950 L9.000,10.414 Z"/>
</svg>