<svg 
 xmlns="http://www.w3.org/2000/svg"
 xmlns:xlink="http://www.w3.org/1999/xlink"
 width="20px" height="19px">
<path fill-rule="evenodd"  fill="rgb(182, 185, 193)"
 d="M18.000,19.000 L2.000,19.000 L-0.000,19.000 L-0.000,17.000 L-0.000,4.000 L-0.000,2.000 L2.000,2.000 L3.000,2.000 L3.000,-0.000 L5.000,-0.000 L5.000,2.000 L15.000,2.000 L15.000,-0.000 L17.000,-0.000 L17.000,2.000 L18.000,2.000 L20.000,2.000 L20.000,4.000 L20.000,17.000 L20.000,19.000 L18.000,19.000 ZM18.000,4.000 L17.000,4.000 L17.000,6.000 L15.000,6.000 L15.000,4.000 L5.000,4.000 L5.000,6.000 L3.000,6.000 L3.000,4.000 L2.000,4.000 L2.000,17.000 L18.000,17.000 L18.000,4.000 Z"/>
</svg>