<svg 
 xmlns="http://www.w3.org/2000/svg"
 xmlns:xlink="http://www.w3.org/1999/xlink"
 width="20px" height="20px">
<path fill-rule="evenodd"  fill="rgb(48, 99, 245)"
 d="M15.746,11.063 L15.269,11.183 C13.257,11.686 11.686,13.257 11.183,15.269 L11.063,15.746 C10.438,18.246 8.192,20.000 5.615,20.000 C2.514,20.000 -0.000,17.486 -0.000,14.384 C-0.000,11.808 1.754,9.562 4.253,8.937 L4.731,8.817 C6.743,8.314 8.314,6.743 8.817,4.731 L8.937,4.253 C9.562,1.754 11.808,-0.000 14.384,-0.000 C17.486,-0.000 20.000,2.514 20.000,5.615 C20.000,8.192 18.246,10.438 15.746,11.063 ZM5.500,11.000 C3.567,11.000 2.000,12.567 2.000,14.500 C2.000,16.433 3.567,18.000 5.500,18.000 C7.433,18.000 9.000,16.433 9.000,14.500 C9.000,12.567 7.433,11.000 5.500,11.000 ZM14.500,2.000 C12.567,2.000 11.000,3.567 11.000,5.500 C11.000,7.433 12.567,9.000 14.500,9.000 C16.433,9.000 18.000,7.433 18.000,5.500 C18.000,3.567 16.433,2.000 14.500,2.000 ZM14.500,7.000 C13.672,7.000 13.000,6.328 13.000,5.500 C13.000,4.672 13.672,4.000 14.500,4.000 C15.328,4.000 16.000,4.672 16.000,5.500 C16.000,6.328 15.328,7.000 14.500,7.000 ZM5.500,16.000 C4.672,16.000 4.000,15.328 4.000,14.500 C4.000,13.672 4.672,13.000 5.500,13.000 C6.328,13.000 7.000,13.672 7.000,14.500 C7.000,15.328 6.328,16.000 5.500,16.000 Z"/>
</svg>