<svg 
 xmlns="http://www.w3.org/2000/svg"
 xmlns:xlink="http://www.w3.org/1999/xlink"
 width="18px" height="20px">
<path fill-rule="evenodd"  fill="rgb(48, 99, 245)"
 d="M17.000,-0.000 L15.000,-0.000 C13.895,-0.000 13.000,0.895 13.000,2.000 C13.000,3.105 12.105,4.000 11.000,4.000 L7.000,4.000 C5.895,4.000 5.000,3.105 5.000,2.000 C5.000,0.895 4.105,-0.000 3.000,-0.000 L1.000,-0.000 C0.448,-0.000 -0.000,0.448 -0.000,1.000 C-0.000,1.552 0.448,2.000 1.000,2.000 L3.000,2.000 C3.000,4.209 4.791,6.000 7.000,6.000 L8.000,6.000 L8.000,7.000 L7.000,7.000 L7.000,12.000 L8.000,12.000 L8.000,13.141 C6.278,13.587 5.000,15.138 5.000,17.000 L5.000,20.000 L7.000,20.000 L7.000,18.000 L7.000,17.000 C7.000,15.897 7.897,15.000 9.000,15.000 C10.103,15.000 11.000,15.897 11.000,17.000 L11.000,18.000 L11.000,20.000 L13.000,20.000 L13.000,17.000 C13.000,15.138 11.722,13.587 10.000,13.141 L10.000,12.000 L11.000,12.000 L11.000,7.000 L10.000,7.000 L10.000,6.000 L11.000,6.000 C13.209,6.000 15.000,4.209 15.000,2.000 L17.000,2.000 C17.552,2.000 18.000,1.552 18.000,1.000 C18.000,0.448 17.552,-0.000 17.000,-0.000 Z"/>
</svg>