<svg 
 xmlns="http://www.w3.org/2000/svg"
 xmlns:xlink="http://www.w3.org/1999/xlink"
 width="20px" height="16px">
<path fill-rule="evenodd"  fill="rgb(48, 99, 245)"
 d="M17.414,14.000 L14.168,10.754 C14.692,9.964 15.000,9.019 15.000,8.000 C15.000,5.239 12.761,3.000 10.000,3.000 C8.981,3.000 8.036,3.308 7.246,3.831 L5.414,2.000 L6.000,2.000 L6.000,-0.000 L-0.000,-0.000 L-0.000,2.000 L2.586,2.000 L5.831,5.246 C5.308,6.036 5.000,6.981 5.000,8.000 C5.000,10.761 7.239,13.000 10.000,13.000 C11.019,13.000 11.964,12.692 12.754,12.168 L14.586,14.000 L14.000,14.000 L14.000,16.000 L20.000,16.000 L20.000,14.000 L17.414,14.000 ZM10.000,11.000 C8.346,11.000 7.000,9.654 7.000,8.000 C7.000,6.346 8.346,5.000 10.000,5.000 C11.654,5.000 13.000,6.346 13.000,8.000 C13.000,8.462 12.886,8.894 12.699,9.285 L10.707,7.293 C10.526,7.112 10.276,7.000 10.000,7.000 C9.448,7.000 9.000,7.448 9.000,8.000 C9.000,8.276 9.112,8.526 9.293,8.707 L9.293,8.707 L11.285,10.699 C10.894,10.886 10.462,11.000 10.000,11.000 Z"/>
</svg>