<svg 
 xmlns="http://www.w3.org/2000/svg"
 xmlns:xlink="http://www.w3.org/1999/xlink"
 width="20px" height="20px">
<path fill-rule="evenodd"  fill="rgb(48, 99, 245)"
 d="M17.500,4.000 C17.269,4.000 17.053,3.943 16.857,3.850 L15.020,5.687 C14.824,5.883 14.508,5.883 14.312,5.687 C14.117,5.492 14.117,5.176 14.312,4.980 L16.150,3.143 C16.057,2.947 16.000,2.731 16.000,2.500 C16.000,1.672 16.672,1.000 17.500,1.000 C18.328,1.000 19.000,1.672 19.000,2.500 C19.000,3.328 18.328,4.000 17.500,4.000 ZM14.500,8.000 C14.947,8.000 15.361,7.873 15.724,7.667 C18.394,11.067 20.000,15.342 20.000,20.000 L17.000,20.000 L16.000,20.000 L1.000,20.000 L-0.000,20.000 L-0.000,19.000 L-0.000,4.000 L-0.000,-0.000 C4.658,-0.000 8.933,1.606 12.333,4.276 C12.127,4.639 12.000,5.053 12.000,5.500 C12.000,6.881 13.119,8.000 14.500,8.000 ZM15.949,19.000 C15.799,16.574 15.123,14.291 14.010,12.277 L2.366,19.000 L15.949,19.000 ZM1.000,4.050 L1.000,17.634 L7.723,5.990 C5.708,4.877 3.426,4.201 1.000,4.050 ZM8.578,6.509 L1.866,18.134 L13.491,11.422 C12.232,9.446 10.554,7.768 8.578,6.509 Z"/>
</svg>