<svg xmlns="http://www.w3.org/2000/svg" width="209" height="209" viewBox="0 0 209 209">
  <defs>
    <style>
      .cls-1 {
        fill: #1d3b93;
        fill-rule: evenodd;
      }
    </style>
  </defs>
  <path id="illustration_error.svg" class="cls-1" d="M551.874,534.377a2.724,2.724,0,1,0,2.918,2.517A2.724,2.724,0,0,0,551.874,534.377ZM525.02,536.9l1.205,16.349a6.586,6.586,0,0,0-5.583,6.986l0.274,3.715a6.585,6.585,0,0,0,6.554,6.092c0.161,0,.324-0.006.488-0.018l-0.073-.986a5.583,5.583,0,0,1-5.982-5.161l-0.274-3.715a5.593,5.593,0,0,1,5.161-5.982l0.492-.036-1.275-17.317a7.665,7.665,0,0,1,7.082-8.209l-0.073-.987A8.667,8.667,0,0,0,525.02,536.9Zm15.4,50.679a3.965,3.965,0,1,0,4.246,3.663A3.964,3.964,0,0,0,540.425,587.579Zm-32.552-49.372a6.7,6.7,0,0,1-4.973,1.422l-8.044-.922-0.112.983,3.1,0.356a2.684,2.684,0,0,0-.132,1.055,2.724,2.724,0,1,0,5.433-.4c0-.023-0.007-0.045-0.01-0.068,0.182,0.013.365,0.031,0.546,0.031a7.751,7.751,0,0,0,7.682-6.866l-0.983-.112A6.715,6.715,0,0,1,507.873,538.207Zm53.272-17.83L547.2,518.069a2.148,2.148,0,0,0-2.468,1.768l-0.361,2.185a2.145,2.145,0,0,0,1.767,2.467l13.948,2.308h0a2.146,2.146,0,0,0,2.468-1.767l0.362-2.185A2.151,2.151,0,0,0,561.145,520.377Zm0.431,4.491a1.159,1.159,0,0,1-1.332.954l-13.949-2.308a1.159,1.159,0,0,1-.953-1.331L545.7,520a1.163,1.163,0,0,1,1.332-.955l13.948,2.308a1.161,1.161,0,0,1,.955,1.332Zm-57.491,11.1a2.151,2.151,0,0,0,2.133-1.9l0.252-2.2a2.148,2.148,0,0,0-1.89-2.378l-14.044-1.61a2.143,2.143,0,0,0-2.379,1.889l-0.252,2.2a2.153,2.153,0,0,0,1.889,2.378l14.046,1.61A2.247,2.247,0,0,0,504.085,535.969Zm-15.2-3.889,0.252-2.2a1.144,1.144,0,0,1,1.283-1.02l14.045,1.611a1.158,1.158,0,0,1,1.019,1.283l-0.252,2.2a1.153,1.153,0,0,1-1.283,1.018l-14.046-1.61A1.161,1.161,0,0,1,488.888,532.08ZM531.5,415a104.563,104.563,0,0,0-90.524,52.338h-0.094V467.5A104.468,104.468,0,0,0,531.5,624a106.085,106.085,0,0,0,12.568-.748A104.506,104.506,0,0,0,531.5,415Zm101.969,86.667L588.4,505.045,586.3,477.14a35.263,35.263,0,0,0-37.737-32.475l-42.932,3.218a12.712,12.712,0,0,0-8.83-5.126,36.626,36.626,0,0,0,.327-20.9A103.516,103.516,0,0,1,633.469,501.667Zm-87.962,106.8a56.969,56.969,0,0,0,27.948-20.744A56.852,56.852,0,0,1,589.8,605.067a102.788,102.788,0,0,1-45.1,17.1,18.115,18.115,0,0,0,.8-5.291v-8.411Zm-18.169,2.013a55.815,55.815,0,0,1-55.751-55.752V539.875a4.9,4.9,0,0,0,5.747-4.956v-20.56l100.009-7.5v28.055a4.9,4.9,0,0,0,5.747,4.956V554.73A55.815,55.815,0,0,1,527.338,610.482Zm-18.167-2.012v8.41a18.239,18.239,0,0,0,.4,3.786,103.156,103.156,0,0,1-41.933-19.754,56.333,56.333,0,0,1,13.58-13.189A56.976,56.976,0,0,0,509.171,608.47Zm-41.853-73.143a5,5,0,0,0,1.931,3.557H468.6a5.332,5.332,0,0,0-5.326,5.326h0.988a4.344,4.344,0,0,1,4.338-4.338h2v13.283h-2.311A8.94,8.94,0,0,1,467.318,535.327Zm81.323-89.676a34.255,34.255,0,0,1,36.453,29.494L516.251,480.3a9.128,9.128,0,0,0-8.42,9.784l1.564,20.878L467.6,514.1l-1.855-24.776a37.4,37.4,0,0,1,34.456-40.04Zm-38.259,65.24-1.565-20.878a8.138,8.138,0,0,1,7.507-8.724l68.885-5.162c0.038,0.362.082,0.722,0.109,1.087l2.091,27.905Zm-34.036,3.542v20.486a4.041,4.041,0,0,1-8.081,0V515.038Zm107.733,25.439h2a4.343,4.343,0,0,1,4.337,4.338h0.989a5.332,5.332,0,0,0-5.326-5.326h-0.653a5,5,0,0,0,1.93-3.557,8.94,8.94,0,0,1-.969,17.828h-2.31V539.872Zm2.332-4.953a4.04,4.04,0,1,1-8.079,0V506.79l8.079-.605v28.734ZM496.2,422.191a35.615,35.615,0,0,1-.522,20.846l-0.2.609,0.64,0.041a11.739,11.739,0,0,1,8.349,4.284l-4.336.325a38.333,38.333,0,0,0-30.411,19.212v-0.17h-27.59A104.077,104.077,0,0,1,496.2,422.191ZM427.989,519.5a102.881,102.881,0,0,1,13.56-51.174h27.722a38.108,38.108,0,0,0-4.515,21.069l1.931,25.762,0.59-.044v19.226a9.928,9.928,0,0,0,1.011,19.8H470.6v0.586a56.405,56.405,0,0,0,10.049,32.188,57.308,57.308,0,0,0-13.778,13.374A103.367,103.367,0,0,1,427.989,519.5Zm82.65,101.4a17.248,17.248,0,0,1-.48-4.019V608.8a56.623,56.623,0,0,0,26.242,1.933v2.275h0.989v-2.452q1.549-.279,3.07-0.639v6.437h0.988v-6.666c1.036-.266,2.058-0.566,3.07-0.888v8.075a17.127,17.127,0,0,1-.884,5.424,105.048,105.048,0,0,1-12.134.707A103.557,103.557,0,0,1,510.639,620.9Zm79.975-16.4a57.859,57.859,0,0,0-16.586-17.583,56.411,56.411,0,0,0,10.051-32.19v-0.586h2.31a9.928,9.928,0,0,0,1.011-19.8V506.111l0.576-.043,0.493-.037h0l45.163-3.385a103.674,103.674,0,0,1,.552,29.922A12.773,12.773,0,0,0,619.54,548.6a4.691,4.691,0,0,0,.92,9.292h7.178A103.892,103.892,0,0,1,590.614,604.5Zm30.04-55.649a11.737,11.737,0,0,1,13.4-15.306,103.073,103.073,0,0,1-6.025,23.354H620.46a3.7,3.7,0,0,1-.243-7.4l0.64-.041Z" transform="translate(-427 -415)"/>
</svg>
