<?xml version="1.0" encoding="utf-8"?>
<!-- Generator: Adobe Illustrator 20.0.0, SVG Export Plug-In . SVG Version: 6.00 Build 0)  -->
<svg version="1.1" id="Layer_1" xmlns="http://www.w3.org/2000/svg" xmlns:xlink="http://www.w3.org/1999/xlink" x="0px" y="0px"
	 viewBox="0 0 439 677" style="enable-background:new 0 0 439 677;" xml:space="preserve">
<g>
	<path fill="#1d3b93" d="M179.8,245.7v-7c0-7.6-5.9-13.8-13.4-14.3c2.5-1.6,4.1-4.4,4.1-7.5c0-5-4-9-9-9h-2.6v-24.5c0-4.1,3.3-7.5,7.5-7.5h0.1l0,0
		c0,0,0,0,0,0c0.3,0,0.6,0,0.9-0.1l13.5-3c2.1-0.5,3.5-2.6,3-4.7c-0.2-1-0.8-1.9-1.7-2.5c-0.9-0.6-1.9-0.8-3-0.5l-13.5,3
		c-1,0.2-1.9,0.8-2.5,1.7c-0.6,0.9-0.8,1.9-0.5,3c0.2,0.8,0.6,1.5,1.1,2c-3.7,1.1-6.4,4.5-6.4,8.6v26h4.1c4.1,0,7.5,3.4,7.5,7.5
		s-3.4,7.5-7.5,7.5h-26.8c-7.6,0-13.9,6-14.3,13.6c-1.2,0-4-0.2-6.1-2.1c-1.8-1.6-2.7-4.1-2.7-7.4h-1.5c0,3.8,1.1,6.6,3.2,8.5
		c2.4,2.2,5.6,2.5,7,2.5v6.2H179.8z M164.4,170.6c0.4-0.6,0.9-0.9,1.5-1.1l13.5-3c0.2,0,0.4-0.1,0.5-0.1c0.5,0,0.9,0.1,1.3,0.4
		c0.6,0.4,0.9,0.9,1.1,1.5c0.3,1.3-0.5,2.6-1.9,2.9l-13.5,3c-1.3,0.3-2.6-0.5-2.9-1.9C164,171.9,164.1,171.2,164.4,170.6z
		 M122,238.7c0-7.1,5.7-12.8,12.8-12.8h23.4l7.4,0c7,0,12.7,5.8,12.7,12.8v5.5h-42.5v-9.1h-1.5v9.1h-4.9v-6.3h-1.5v6.3h-6V238.7z"/>
	<circle fill="#1d3b93" cx="122.6" cy="195.1" r="3.3"/>
	<circle fill="#1d3b93" cx="165.7" cy="195.1" r="3.3"/>
	<path fill="#1d3b93" d="M114.3,181.3h13.8c2.2,0,3.9-1.8,3.9-3.9s-1.8-3.9-3.9-3.9h-13.8c-2.2,0-3.9,1.8-3.9,3.9S112.1,181.3,114.3,181.3z
		 M114.3,175h13.8c1.3,0,2.4,1.1,2.4,2.4s-1.1,2.4-2.4,2.4h-13.8c-1.3,0-2.4-1.1-2.4-2.4S113,175,114.3,175z"/>
	<path fill="#1d3b93" d="M176.9,492c4.2,0,7.5-3.4,7.5-7.5s-3.4-7.5-7.5-7.5s-7.5,3.4-7.5,7.5S172.7,492,176.9,492z M176.9,478.4c3.3,0,6,2.7,6,6
		s-2.7,6-6,6s-6-2.7-6-6S173.5,478.4,176.9,478.4z"/>
	<path fill="#1d3b93" d="M377.7,345.7c0.2-0.3,0.3-0.6,0.4-1c0.7-2,0.5-4.2-0.4-6.2c-0.8-1.6-2-2.8-3.6-3.6c0.4-0.6,0.8-1.3,1-2.1
		c0.7-2,0.5-4.2-0.4-6.2c-1-2-2.8-3.5-5-4.1c0.2-0.5,0.5-1,0.6-1.5c0.9-2.8,0.6-5.8-0.8-8.4c-2.6-4.9-9.3-6.8-14.9-4.3l-9,4.2
		c-2.9,1.3-6.4,0.1-7.9-2.8l-8-27.1l0-0.1c-1.8-3.8-6.2-5.6-10.2-4.1l-1.8,0.6c-3,1.1-4.7,4.2-3.9,7.2l5.1,39.2
		c-14.3,14.6-1.8,31.8,0,34.2c-3.1,20.7-21.2,36.3-42.2,36.3c-14.9,0-28.8-7.9-36.5-20.7l3.4-1.7c1.2-0.6,2.2-1.7,2.6-3
		c0.4-1.3,0.3-2.7-0.3-4l-27.9-56c-4.5-9-14.4-14.1-24.3-12.5c-2.6-2.1-5.6-4-8.7-5.4c-1.4-2.3-3.1-4.5-5-6.5
		c-1.4-1.4-3.3-2.2-5.3-2.2h-13.8c-1.3,0-2.5,0.7-3.1,1.9c-0.4,0.8-0.5,1.8-0.3,2.6h-4.2V281c19.3-3.1,34.1-19.9,34.1-40v-11.4
		c5.5-1.2,9.4-6.1,9.4-11.8s-3.9-10.5-9.4-11.8v-0.4c4.2-2.2,6.9-6.4,6.9-10.6c0-0.3,0-0.5,0-0.8c2.4-2.3,3.7-5.4,3.7-8.7
		c0-3.5-1.5-6.7-4.1-9c0.5-1.3,0.7-2.6,0.7-4c0-4.4-2.8-8.6-7-10.9h57.8v-1.5h-58v-19.7c0-19.9-16.2-36.1-36.1-36.1h-38.5
		c-19.9,0-36.1,16.2-36.1,36.1v19.8c-6.1,0.8-11.3,6.3-11.3,12.2c0,1.4,0.2,2.7,0.7,4c-2.6,2.3-4.1,5.5-4.1,9c0,3.3,1.4,6.4,3.7,8.7
		c0,0.3,0,0.5,0,0.8c0,5,3.9,9.7,8.8,11.5c-4.6,1.7-7.9,6.1-7.9,11.3c0,6,4.5,11,10.3,11.9c1.7,21.1,15,38.8,33.3,47v11.7H98.8
		c-0.2,0-0.4,0-0.5,0c-0.7-0.8-1.3-1.6-2.1-2.3c-1.4-1.4-3.3-2.2-5.3-2.2H77.1c-1.3,0-2.5,0.7-3.1,1.9c-0.6,1.2-0.5,2.6,0.2,3.8
		c1,1.5,1.9,3.1,2.7,4.7c-4.6,2.6-8.6,6-12,10.1c-10.5-2.6-21.6,3-25.8,13.3l-23.4,58.8c-0.5,1.4-0.5,2.9,0.1,4.3
		c0.6,1.4,1.7,2.4,3.1,3l1.3,0.5c-2.9,8.1-4.4,16.6-4.4,25.3c0,20,7.8,38.7,21.9,52.9c3.1,3.1,6.4,5.9,9.9,8.4
		c-0.1,0.6-0.2,1.1-0.2,1.7v187.7h169.5V472.4c0-3.8-2.8-7-6.4-7.6v-74.7c0.2-0.1,0.4-0.2,0.6-0.3l1.8-0.9
		c3.3,5.9,7.4,11.3,12.2,16.2c13.8,13.8,32.2,21.5,51.8,21.5c19.6,0,38-7.6,51.8-21.5c8.6-8.6,15-19.3,18.4-30.9
		c4.9,1.5,10.2-1,12.2-5.8l0.3-0.7c0.1,0,0.3,0,0.4,0c1.2,0,2.5-0.3,3.6-0.9l13.5-7.2c1.9-1,3.4-2.6,4-4.7c0.7-2,0.5-4.2-0.4-6.2
		C380,347.6,379,346.5,377.7,345.7z M376.3,339.2c0.8,1.6,0.9,3.4,0.4,5c-0.6,1.7-1.7,3-3.3,3.8l-16.1,8.5c-1.6,0.8-3.4,0.9-5,0.4
		c-1.7-0.6-3-1.7-3.8-3.3c-0.8-1.6-0.9-3.5-0.3-5.2c0,0,0.1,0,0.1,0c1.2,0,2.5-0.3,3.6-0.9l19.1-10c0.7-0.4,1.4-0.9,2-1.4
		C374.5,336.8,375.6,337.8,376.3,339.2z M373.3,327.4c0.8,1.6,0.9,3.4,0.4,5c-0.6,1.7-1.7,3-3.3,3.8l-19.1,10
		c-1.6,0.8-3.4,0.9-5,0.4c-1.7-0.6-3-1.7-3.8-3.3c-0.6-1.2-0.8-2.5-0.6-3.8c1.1-0.1,2.1-0.3,3.1-0.8l20.1-11.1c1.6-0.9,3-2.1,4-3.6
		C370.8,324.4,372.5,325.6,373.3,327.4z M208.9,332.7v132.1h-19V310.4c0-5.5-1.3-10.7-3.6-15.5C200.1,302.3,208.9,316.9,208.9,332.7
		z M159.1,286.5c0.4-0.7,1-1.1,1.8-1.1h13.8c1.6,0,3.1,0.6,4.2,1.8c6.1,6.2,9.5,14.5,9.5,23.3v174.3c0,6.5-5.2,11.8-11.6,11.8
		c-6.4,0-11.6-5.3-11.6-11.8V308.4c0-7.1-2.1-13.9-6.1-19.7C158.8,288,158.7,287.2,159.1,286.5z M195.2,217.8c0,4.9-3.3,9-7.9,10.2
		v-14.2c1.2,0.8,2,2.2,2,3.8h1.5c0-2.4-1.4-4.5-3.5-5.5v-4.6C192,208.8,195.2,212.9,195.2,217.8z M193,172.6c0,1.4-0.3,2.7-0.8,3.9
		l-0.2,0.5l0.4,0.4c2.5,2,3.9,5,3.9,8.2c0,3-1.3,5.8-3.5,7.8l-0.3,0.3l0,0.4c0,0.3,0,0.7,0,1c0,3.5-2.1,6.8-5.4,8.9v-40.6
		C190.8,165.4,193,169,193,172.6z M185.8,160.2h-83v-23.9c0-5.5,4.5-10,10-10h69.9c2,4.3,3.1,9.1,3.1,14.2V160.2z M112.8,106h38.5
		c13.4,0,25,7.7,30.8,18.8h-69.2c-6.3,0-11.5,5.2-11.5,11.5v23.9H78.2v-19.7C78.2,121.5,93.7,106,112.8,106z M67.2,195
		c0-0.3,0-0.7,0-1l0-0.4l-0.3-0.3c-2.2-2-3.5-4.8-3.5-7.8c0-3.2,1.4-6.2,3.9-8.2l0.4-0.3l-0.2-0.5c-0.5-1.3-0.8-2.6-0.8-3.9
		c0-5.7,5.4-10.9,11.3-10.9h11.5v50.8c0,3.9-3,7.1-6.8,7.5v-14.3h-4.2C72.7,205.7,67.2,200.6,67.2,195z M78.4,229.8
		c0.1,0,0.2,0,0.3,0h2.8v-1.5h-2.8c-5.8,0-10.6-4.7-10.6-10.6s4.7-10.6,10.6-10.6h2.7v4.3h-2.8c-3.3,0-6.1,2.7-6.1,6.1H74
		c0-2.5,2-4.6,4.6-4.6h2.8v8.5h0.8c5,0,9.1-4.1,9.1-9.1v-50.8h94.6V241c0,21.5-17.5,39.1-39.1,39.1h-13.6
		C104.7,280.1,80.8,258.1,78.4,229.8z M133.1,281.6h4.8v6.8h1.5v-6.8h2.8V293h1.5v-11.4h2.9v15.9h1.5v-15.9c1.2,0,2.4-0.1,3.6-0.3
		v15c0,7-5.7,12.7-12.7,12.7h-14.6c-7,0-12.7-5.7-12.7-12.7v-19C118.3,280,125.6,281.6,133.1,281.6z M110.2,289.9v6.4
		c0,7.9,6.4,14.2,14.2,14.2H139c7.9,0,14.2-6.4,14.2-14.2v-6.4h5c3.7,5.5,5.6,11.9,5.6,18.5v156.3h-24.5c0.9-2,0.9-4.3,0.2-6.3
		c-0.8-2.1-2.4-3.8-4.4-4.8l-9-4.1l8-18.7l18.7-2.4l10.9-26.1l-12.4-16.3l-10.3,24.7l-12.4-5.2l10.3-24.7l-20.4,2.6l-10.9,26.1
		l11.4,15l-7.8,18.2l-2.2-1c-0.9-0.4-1.9-0.8-2.8-1.1V310.4c0-7.5-2.3-14.6-6.7-20.5H110.2z M112.4,443.3l8.1-19l-11.4-15l10.3-24.5
		l16.9-2.2l-9.9,23.6l15.2,6.4l9.9-23.6l10.3,13.6l-10.3,24.5l-18.6,2.4l-8.3,19.4L112.4,443.3z M75.2,286.5c0.4-0.7,1-1.1,1.8-1.1
		h13.8c1.6,0,3.1,0.6,4.2,1.8c6.1,6.2,9.5,14.5,9.5,23.3v129.8c-4.2-1-8.7-0.7-12.9,0.8c-4.2,1.5-7.7,4.2-10.2,7.7v-111l0.1-0.4
		c2.4-6.2,2.3-12.9-0.3-19c-0.2-0.5-0.4-0.9-0.7-1.4h0.8v-8.7c0-7.1-2.1-13.9-6.1-19.7C74.9,288,74.9,287.2,75.2,286.5z M56,437.1
		v-40.2c0.1,0,0.2-0.1,0.3-0.1c1.4-0.6,2.4-1.7,3-3.1L80,341.6v109.6c-0.2,0.3-0.4,0.7-0.5,1C69.9,449.7,61.8,444.3,56,437.1z
		 M52.1,396.9c0.7,0.3,1.4,0.4,2.1,0.4c0.1,0,0.3,0,0.4,0v37.9c-5.2-7.3-8.2-16.1-8.2-25.6c0-4.8,0.8-9.5,2.3-14L52.1,396.9z
		 M77.4,295.6c1.7,4,2.6,8.4,2.6,12.8v7.4c-2.8-4.8-7-8.5-12.3-10.6c-0.4-0.2-0.9-0.3-1.3-0.5C69.5,301.1,73.2,298,77.4,295.6z
		 M17.1,380.1c-0.4-1-0.4-2.1,0-3.1l23.4-58.8c3.2-8.1,11-13,19.2-13c2.5,0,5.1,0.5,7.6,1.5c5.8,2.3,10.3,6.7,12.8,12.4
		c2.5,5.7,2.6,12.1,0.3,17.8l-22.4,56.3c-0.4,1-1.2,1.8-2.2,2.2c-1,0.4-2.1,0.4-3.1,0l-33.3-13.2C18.3,381.9,17.5,381.1,17.1,380.1z
		 M17.2,409.5c0-8.5,1.4-16.8,4.3-24.8L47.2,395c-1.6,4.7-2.4,9.6-2.4,14.5c0,21.1,14.3,39.3,34.8,44.3l0.2-0.7l0.7,0.3
		c2.3-5.1,6.5-9,11.8-10.9c5.3-2,10.9-1.7,16,0.6l26.1,11.9c1.7,0.8,3,2.2,3.7,3.9s0.6,3.7-0.2,5.4s-2.2,3-3.9,3.7
		c-1.8,0.7-3.7,0.6-5.4-0.2l-0.6,1.4c0.4,0.2,0.8,0.3,1.2,0.4l0,0.1c1.7,0.8,3,2.2,3.7,3.9c0.7,1.8,0.6,3.7-0.2,5.4
		c-1.6,3.5-5.8,5.1-9.3,3.5l0,0c-0.1,0-0.2-0.1-0.3-0.1l-0.6,1.4c1.7,0.8,3,2.2,3.7,3.9c0.7,1.8,0.6,3.7-0.2,5.4
		c-0.8,1.7-2.2,3-3.9,3.7c-1.8,0.7-3.7,0.6-5.4-0.2l0,0.1c-0.3-0.2-0.6-0.3-0.9-0.5l-0.6,1.4c3.5,1.6,5.1,5.8,3.5,9.3
		c-1.6,3.5-5.8,5.1-9.3,3.5l-36.5-16.7c-2.3-1.1-4.1-3-5-5.3c-0.9-2.4-0.8-5,0.3-7.3l0.4-0.8l-0.7-0.3l0.2-0.6
		c-11-3.6-20.9-9.6-29.2-17.9C24.8,447.4,17.2,429.1,17.2,409.5z M99.6,507.4l-5.6,13c-0.7,1.7-2.7,2.5-4.4,1.8l-6.2-2.6
		c-0.8-0.3-1.5-1-1.8-1.8c-0.3-0.8-0.3-1.7,0-2.6l5.7-13.4L99.6,507.4z M66.6,480.3c-1.2,2.7-1.3,5.6-0.3,8.3c0.4,1,0.9,1.9,1.5,2.7
		v27.4c0,5.1-4.2,9.3-9.3,9.3h-9.7v-55.6c0-0.3,0-0.5,0.1-0.8C54.3,475.3,60.2,478.2,66.6,480.3z M148.2,658.6V530.6h-1.5v128.1
		H48.8V529.6h9.7c5.9,0,10.8-4.8,10.8-10.8v-25.7c0.8,0.7,1.7,1.3,2.8,1.8l14,6.4l-5.7,13.4c-0.5,1.2-0.5,2.5,0,3.7
		c0.5,1.2,1.4,2.1,2.6,2.6l6.2,2.6c0.6,0.3,1.2,0.4,1.9,0.4c1.9,0,3.7-1.1,4.5-2.9l5.6-13l7.6,3.5c1.1,0.5,2.3,0.8,3.5,0.8
		c3.2,0,6.3-1.8,7.8-5c1.4-3,0.8-6.4-1-8.8c0.2,0,0.4,0,0.6,0c1,0,2-0.2,3-0.5c2.1-0.8,3.8-2.4,4.8-4.4c0.9-2.1,1-4.4,0.2-6.5
		c-0.3-0.9-0.9-1.8-1.5-2.5c0.1,0,0.2,0,0.2,0c3.2,0,6.3-1.8,7.8-5c0.9-2.1,1-4.4,0.2-6.5c-0.5-1.2-1.2-2.3-2.1-3.2
		c0.8-0.1,1.6-0.2,2.4-0.5c1.7-0.6,3-1.7,4-3.1h8.2v44.6H139v1.5h9.2v-46.1h15.7v18.5c0,7.3,5.9,13.3,13.1,13.3
		c7.2,0,13.1-6,13.1-13.3v-18.5H202v52.6c0,5.9,4.8,10.8,10.8,10.8h2.5v129.1H148.2z M215.3,472.4v55.6h-2.5c-5.1,0-9.3-4.2-9.3-9.3
		v-52.6h5.6C212.5,466.2,215.3,469,215.3,472.4z M210.4,388.5v-55.9c0-12.9-5.7-25-15.1-33.3c8.8-0.8,17.4,3.9,21.4,11.9l27.9,56
		c0.4,0.9,0.5,1.9,0.2,2.8c-0.3,0.9-1,1.7-1.9,2.2L210.4,388.5z M357.8,367.9c-1.7,4.3-6.7,6.4-11,4.7l-0.8-0.3l-0.2,0.8
		c-3.3,11.6-9.6,22.3-18.3,31c-13.6,13.6-31.6,21-50.7,21c-19.2,0-37.2-7.5-50.7-21c-4.7-4.7-8.7-10-11.9-15.8L239,376
		c8,13.3,22.4,21.5,37.9,21.5c21.9,0,40.7-16.3,43.7-37.9l0-0.3l-0.2-0.3c-0.1-0.2-14.8-17.9,0-32.7l0.3-0.3l-5.2-40
		c-0.6-2.3,0.7-4.7,2.9-5.5l1.8-0.6c3.2-1.1,6.8,0.3,8.3,3.3l8,27.1l0,0.1c1.8,3.6,6.2,5.2,9.9,3.5l9-4.2c4.8-2.2,10.6-0.6,12.9,3.6
		c1.2,2.2,1.4,4.8,0.7,7.2c-0.7,2.4-2.4,4.4-4.7,5.6l-20.1,11.1c-1.4,0.7-3,0.9-4.5,0.4c-1.5-0.5-2.7-1.5-3.5-2.9
		c-1.5-2.9-0.4-6.4,2.5-7.9l12.9-6.8l-0.7-1.3l-12.9,6.8c-3.6,1.9-4.9,6.3-3.1,9.9c0.3,0.5,0.6,1,1,1.4c0.4,0.7,8.9,15.8,0.1,24.6
		l1.1,1.1c7.5-7.5,3.8-18.5,1.5-23.7c0.2,0.1,0.5,0.2,0.7,0.3c0.4,0.1,0.7,0.2,1.1,0.2c-0.2,1.5,0.1,3.1,0.8,4.5
		c1,1.9,2.6,3.4,4.7,4c0.3,0.1,0.6,0.2,0.9,0.2c-0.6,2-0.5,4.1,0.5,6c1,1.9,2.6,3.4,4.7,4c0.1,0,0.1,0,0.2,0.1c-0.3,1.7,0,3.4,0.7,5
		c1,1.9,2.6,3.4,4.7,4c0.2,0.1,0.4,0.1,0.6,0.1L357.8,367.9z M379.7,354.6c-0.6,1.7-1.7,3-3.3,3.8l-13.5,7.2c-1.6,0.8-3.4,0.9-5,0.4
		c-1.7-0.6-3-1.7-3.8-3.3c-0.6-1.2-0.8-2.6-0.6-4c0.3,0,0.6,0.1,0.9,0.1c1.2,0,2.5-0.3,3.6-0.9l16.1-8.5c1.2-0.6,2.1-1.4,2.9-2.4
		c1,0.6,1.9,1.5,2.4,2.6C380.1,351.2,380.3,352.9,379.7,354.6z"/>
	<path fill="#1d3b93" d="M416.3,214.2h-22.4c-2.9-13.9-15.2-24.3-29.9-24.3c-15,0-27.4,10.8-30,25c-7,2-12.2,7.9-13.2,15.3h-9.1
		c-5.8,0-10.4,4.7-10.4,10.4c0,5.8,4.7,10.4,10.4,10.4H339h0.9h49c9.3,0,17.1-7,18.3-16h9.1c5.8,0,10.4-4.7,10.4-10.4
		C426.8,218.8,422.1,214.2,416.3,214.2z M416.3,233.5h-9.1h-1.3l-0.2,1.3c-1.1,8.4-8.3,14.7-16.8,14.7h-49H339h-27.4
		c-4.9,0-8.9-4-8.9-8.9s4-8.9,8.9-8.9h9.1h1.3l0.2-1.3c0.9-6.7,5.6-12.2,12.1-14l0.9-0.3l0.2-0.9c2.5-13.8,14.6-23.7,28.6-23.7
		c13.7,0,25.6,9.7,28.4,23.1l0.3,1.2h1.2h22.4c4.9,0,8.9,4,8.9,8.9C425.3,229.5,421.3,233.5,416.3,233.5z"/>
	<path fill="#1d3b93" d="M294.3,207.2c0,3.8,3.1,7,7,7c3.8,0,7-3.1,7-7s-3.1-7-7-7C297.4,200.2,294.3,203.3,294.3,207.2z M306.7,207.2
		c0,3-2.4,5.5-5.5,5.5s-5.5-2.4-5.5-5.5s2.4-5.5,5.5-5.5S306.7,204.2,306.7,207.2z"/>
	<path fill="#1d3b93" d="M223.5,80.4h28.3h25c6.3,0,11.9-3.2,15.2-8h13.1c5.8,0,10.4-4.7,10.4-10.4s-4.7-10.4-10.4-10.4H292
		c-2.4-3.5-6-6.1-10.1-7.3c-2.6-14.2-15.1-25-30-25c-16.9,0-30.6,13.7-30.6,30.6c0,3.4,0.6,6.7,1.6,9.7c-5.4,0.4-9.8,4.9-9.8,10.4
		C213.1,75.8,217.8,80.4,223.5,80.4z M222.9,61.1l1.9-0.1l-0.6-1.8c-1-3-1.5-6.1-1.5-9.2c0-16,13-29.1,29.1-29.1
		c14,0,26,10,28.6,23.7l0.2,0.9l0.9,0.3c3.8,1.1,7.1,3.4,9.3,6.7l0.4,0.6h0.8h13.1c4.9,0,8.9,4,8.9,8.9s-4,8.9-8.9,8.9H292h-0.8
		l-0.4,0.6c-3.2,4.6-8.4,7.3-14,7.3h-25h-28.3c-4.9,0-8.9-4-8.9-8.9C214.6,65.3,218.3,61.4,222.9,61.1z"/>
</g>
</svg>
